<svg xmlns="http://www.w3.org/2000/svg" viewBox="0 0 512 512">
<rect width="512" height="512" fill="#A62B32"/>
<path fill="#D6A3A0" d="M0,0 L15,5 L25,12 L37,20 L49,31 L53,36 L54,34 L57,35 L61,43 L64,43 L66,47 L70,48 L70,46 L83,47 L83,45 L99,44 L102,47 L107,45 L114,45 L118,44 L122,46 L134,46 L138,46 L142,42 L144,42 L149,33 L151,34 L152,35 L162,24 L171,17 L180,11 L192,3 L204,0 L209,3 L215,15 L219,30 L221,43 L221,65 L218,80 L223,78 L220,87 L217,92 L221,90 L224,91 L220,99 L215,105 L221,104 L218,109 L215,112 L218,115 L218,119 L223,125 L223,127 L220,127 L223,134 L229,138 L227,143 L225,143 L230,152 L232,161 L229,162 L227,161 L230,168 L232,175 L232,179 L230,179 L231,181 L231,190 L229,188 L229,203 L227,199 L227,212 L224,216 L222,223 L219,226 L217,226 L215,235 L213,241 L211,240 L209,245 L217,241 L224,237 L229,232 L235,225 L239,217 L240,207 L242,207 L245,213 L245,218 L247,217 L249,206 L251,190 L253,192 L255,178 L261,165 L267,156 L268,159 L269,160 L276,146 L280,141 L289,134 L296,130 L306,124 L308,125 L305,130 L310,128 L321,123 L329,122 L340,121 L357,121 L364,123 L360,126 L358,126 L356,131 L353,134 L354,136 L351,142 L346,148 L342,161 L342,163 L347,157 L352,155 L348,165 L345,178 L347,200 L345,213 L342,223 L337,232 L336,239 L332,248 L324,258 L310,268 L320,267 L314,275 L310,281 L296,289 L292,292 L283,295 L286,297 L270,301 L255,302 L258,305 L262,307 L262,308 L241,308 L239,307 L239,309 L241,310 L230,310 L223,308 L214,308 L203,302 L198,300 L193,296 L192,298 L188,297 L179,291 L174,288 L170,281 L166,283 L160,285 L154,287 L152,293 L145,307 L138,317 L138,323 L135,326 L132,327 L124,327 L119,324 L117,319 L116,305 L116,297 L108,299 L98,299 L92,297 L92,308 L91,319 L88,325 L84,327 L76,327 L71,324 L70,323 L70,316 L64,309 L56,295 L54,288 L49,287 L43,283 L37,280 L31,277 L23,271 L18,268 L15,265 L11,258 L7,256 L0,248 L-1,244 L-4,243 L-8,235 L-12,222 L-15,223 L-17,218 L-19,212 L-19,204 L-21,204 L-22,190 L-24,192 L-24,176 L-21,165 L-24,164 L-21,161 L-22,160 L-24,161 L-25,157 L-23,152 L-22,147 L-19,140 L-13,132 L-18,133 L-17,127 L-12,119 L-10,115 L-8,111 L-13,109 L-16,105 L-10,105 L-10,103 L-14,101 L-19,92 L-18,89 L-12,92 L-18,82 L-17,79 L-13,81 L-16,70 L-17,63 L-17,44 L-15,29 L-11,14 L-5,3 Z M117,45 Z M344,191 L345,193 Z " transform="translate(36 21) scale(1.1 1.3848396501457727)"/>
<path fill="#D6A3A0" d="M0,0 L10,2 L25,5 L36,13 L39,17 L45,12 L51,11 L56,13 L58,14 L57,23 L62,28 L72,36 L71,41 L67,44 L62,45 L52,45 L44,41 L47,44 L53,46 L66,46 L73,45 L76,46 L92,46 L101,42 L101,41 L93,45 L83,45 L74,42 L74,34 L82,29 L87,25 L89,15 L94,11 L101,12 L107,16 L112,10 L119,6 L132,2 L137,1 L158,1 L160,3 L156,7 L162,10 L169,19 L171,24 L172,31 L162,29 L165,38 L164,46 L162,49 L158,43 L155,61 L154,64 L152,65 L150,70 L147,70 L145,66 L142,78 L138,85 L135,88 L131,94 L130,91 L125,96 L122,101 L118,103 L115,105 L113,105 L108,110 L105,113 L101,113 L96,119 L92,120 L86,124 L80,129 L75,130 L74,133 L71,133 L67,128 L61,125 L56,122 L48,117 L43,113 L37,111 L31,105 L28,105 L24,100 L19,95 L16,89 L15,92 L12,91 L9,88 L6,84 L2,75 L1,66 L-1,66 L-1,71 L-4,71 L-7,65 L-7,63 L-9,63 L-12,53 L-13,43 L-17,48 L-19,47 L-20,38 L-18,29 L-27,32 L-26,25 L-22,16 L-17,10 L-10,7 L-15,2 L-14,1 L0,1 Z " transform="translate(36 21) scale(1.1 1.3848396501457727)"/>
<path fill="#D6A3A0" d="M0,0 L23,0 L27,2 L19,3 L16,8 L5,14 L-5,24 L-8,29 L-14,33 L-12,27 L-20,36 L-27,48 L-29,51 L-29,41 L-31,42 L-31,38 L-32,34 L-29,28 L-36,36 L-38,38 L-38,34 L-42,41 L-44,41 L-46,45 L-47,42 L-48,44 L-50,40 L-48,35 L-53,35 L-54,34 L-55,36 L-57,36 L-57,32 L-59,32 L-60,35 L-63,36 L-61,30 L-54,20 L-45,13 L-38,9 L-28,3 L-26,4 L-29,9 L-24,7 L-13,2 L-5,1 Z " transform="translate(36 21) scale(1.1 1.3848396501457727)"/>
<path fill="#D6A3A0" d="M0,0 L2,3 L3,1 L5,1 L6,6 L10,6 L12,13 L14,14 L14,19 L16,20 L2,20 L-7,22 L-9,14 L-5,8 L-3,2 L-1,2 Z " transform="translate(36 21) scale(1.1 1.3848396501457727)"/>
<path fill="#D6A3A0" d="M0,0 L6,4 L8,6 L8,15 L2,23 L-2,24 L-8,27 L-19,27 L-23,24 L-23,18 L-17,22 L-9,22 L-7,21 L-6,16 L-3,17 L-2,10 L2,10 L2,5 Z " transform="translate(36 21) scale(1.1 1.3848396501457727)"/>
<path fill="#D6A3A0" d="M0,0 L3,4 L7,12 L6,18 L8,27 L10,31 L5,29 L7,34 L4,35 L-1,25 L-1,5 Z " transform="translate(36 21) scale(1.1 1.3848396501457727)"/>
<path fill="#D6A3A0" d="M0,0 L1,0 L4,9 L8,12 L18,12 L18,8 L23,6 L25,8 L24,12 L18,17 L7,17 L2,14 L-2,10 L-1,1 Z " transform="translate(36 21) scale(1.1 1.3848396501457727)"/>
<path fill="#D6A3A0" d="M0,0 L2,2 L1,15 L1,24 L-1,29 L-4,31 L-5,29 L-7,30 L-9,28 L-5,22 L-4,10 Z " transform="translate(36 21) scale(1.1 1.3848396501457727)"/>
<path fill="#D6A3A0" d="M0,0 L3,0 L3,2 L12,0 L7,5 L-1,11 L-5,14 L-8,14 L-6,10 L-2,3 Z " transform="translate(36 21) scale(1.1 1.3848396501457727)"/>
<path fill="#D6A3A0" d="M0,0 L6,2 L9,8 L9,10 L6,11 L0,7 L0,5 L-5,7 L-8,6 L-13,4 L-12,2 L-3,3 L-2,2 Z " transform="translate(36 21) scale(1.1 1.3848396501457727)"/>
<path fill="#D6A3A0" d="M0,0 L0,3 L-2,9 L-1,18 L1,23 L-3,21 L-7,15 L-8,8 L-3,3 Z " transform="translate(36 21) scale(1.1 1.3848396501457727)"/>
<path fill="#D6A3A0" d="M0,0 L8,2 L14,5 L10,6 L10,8 L13,12 L8,11 L3,7 L2,4 L3,3 Z " transform="translate(36 21) scale(1.1 1.3848396501457727)"/>
<path fill="#D6A3A0" d="M0,0 L1,0 L2,10 L1,16 L2,18 L4,18 L2,26 L1,26 L1,21 L-1,21 L-2,4 Z " transform="translate(36 21) scale(1.1 1.3848396501457727)"/>
<path fill="#A62B32" d="M0,0 L6,1 L6,4 L-1,6 L-6,11 L-4,6 Z " transform="translate(36 21) scale(1.1 1.3848396501457727)"/>
<path fill="#A62B32" d="M0,0 L5,1 L11,10 L10,12 L4,5 L-2,4 Z " transform="translate(36 21) scale(1.1 1.3848396501457727)"/>
<path fill="#D6A3A0" d="M0,0 L4,1 L3,6 L-2,7 L-3,2 Z " transform="translate(36 21) scale(1.1 1.3848396501457727)"/>
<path fill="#D6A3A0" d="M0,0 L2,1 L2,4 L-2,3 L-13,3 L-13,5 L-18,4 L-15,3 L-15,1 Z " transform="translate(36 21) scale(1.1 1.3848396501457727)"/>
<path fill="#D6A3A0" d="M0,0 L1,0 L1,8 L-1,9 L-7,9 L-1,1 Z " transform="translate(36 21) scale(1.1 1.3848396501457727)"/>
<path fill="#D6A3A0" d="M0,0 Z " transform="translate(36 21) scale(1.1 1.3848396501457727)"/>
<path fill="#A62B32" d="M0,0 Z " transform="translate(36 21) scale(1.1 1.3848396501457727)"/>
<path fill="#A62B32" d="M0,0 Z " transform="translate(36 21) scale(1.1 1.3848396501457727)"/>
<path fill="#A62B32" d="M0,0 Z " transform="translate(36 21) scale(1.1 1.3848396501457727)"/>
<path fill="#D6A3A0" d="M0,0 Z " transform="translate(36 21) scale(1.1 1.3848396501457727)"/>
<path fill="#D6A3A0" d="M0,0 Z " transform="translate(36 21) scale(1.1 1.3848396501457727)"/>
<path fill="#D6A3A0" d="M0,0 Z " transform="translate(36 21) scale(1.1 1.3848396501457727)"/>
<path fill="#D6A3A0" d="M0,0 Z " transform="translate(36 21) scale(1.1 1.3848396501457727)"/>
<path fill="#D6A3A0" d="M0,0 Z " transform="translate(36 21) scale(1.1 1.3848396501457727)"/>
<path fill="#D6A3A0" d="M0,0 Z " transform="translate(36 21) scale(1.1 1.3848396501457727)"/>
<path fill="#D6A3A0" d="M0,0 Z " transform="translate(36 21) scale(1.1 1.3848396501457727)"/>
</svg>